<svg width="1512" height="983" viewBox="0 0 1512 983" fill="none" xmlns="http://www.w3.org/2000/svg">
<rect width="1512" height="982" transform="translate(0 0.5)" fill="url(#paint0_linear_1_2)"/>
<g filter="url(#filter0_d_1_2)">
<rect x="542" y="239.5" width="428" height="424" rx="5" fill="white" shape-rendering="crispEdges"/>
<path d="M763.5 585.214C759.214 588.5 773.643 600.643 738.214 587.857C702.857 575.071 688.429 530.5 681.214 505.929C674 481.357 693.357 447.929 706.143 438.429C718.929 428.929 742.5 425 745.143 424.643C747.714 424.357 751.357 422.714 757.571 416.5C763.786 410.286 783.429 403.714 797.571 406.643C811.643 409.571 846.714 443 869.929 490.214C893.214 537.357 861.786 571.143 856.214 571.143C850.643 571.143 818.5 549.5 815.571 546.857C812.643 544.286 805.429 543.571 800.143 541.643C794.929 539.643 782.786 525.286 782.786 525.286C784.786 561.286 767.714 581.929 763.5 585.214Z" fill="#EAB363"/>
<path d="M749.714 589.786C742.143 589.786 722.5 576.071 701.571 547.214C680.571 518.357 686.5 478.071 686.5 478.071C682.571 539.357 754 586.857 754 586.857C754 586.857 757.214 589.786 749.714 589.786Z" fill="#8C5E28"/>
<path d="M800.143 541.643C794.929 539.643 782.786 525.286 782.786 525.286C782.786 525.286 777.214 466.286 782.786 440.429C788.357 414.5 791.286 414.214 795.214 422.714C798.786 430.357 799.929 513.143 812.286 545.071C808.786 543.786 803.929 543.071 800.143 541.643Z" fill="#E2942D"/>
<path d="M744.143 426.643C744.143 426.643 733 435.786 730.714 436.5C728.429 437.143 702.5 450.571 695.357 464.643C688.143 478.714 692.714 457.143 700.214 449.571C707.786 442.071 726.429 428.571 744.143 426.643Z" fill="#8C5E28"/>
<path d="M737.071 573.571C692.929 597.5 640.643 597.714 640.643 597.714C646.5 582.929 629.571 557.857 629.571 557.857C678.214 563 710.214 545.071 710.214 545.071C711.357 546.571 737.071 573.571 737.071 573.571Z" fill="#E6E6E6"/>
<path opacity="0.1" d="M737.071 573.571C723.571 580.857 709.357 585.929 696.071 589.5C691.214 572.143 679.929 562.286 670.857 557C695.5 553.286 710.214 545.071 710.214 545.071C711.357 546.571 737.071 573.571 737.071 573.571Z" fill="black"/>
<path d="M763.214 432.643C756.286 445.857 737.857 437.857 742 437.643C746.143 437.429 758.571 420.357 766.857 414.643C775.214 408.929 797.571 406.643 800.071 410.214C802.643 413.786 795.5 414.357 787.214 414.643C778.857 414.857 773.357 456.786 773.357 456.786C758.143 448.929 770.143 419.429 763.214 432.643Z" fill="#F4CD9A"/>
<path d="M660.725 374.5L664.595 364H665.93L669.785 374.5H668.45L667.49 371.8H663.02L662.045 374.5H660.725ZM663.395 370.78H667.115L665.255 365.59L663.395 370.78ZM675.246 374.68C674.636 374.68 674.091 374.555 673.611 374.305C673.141 374.055 672.781 373.705 672.531 373.255L672.411 374.5H671.271V363.7H672.531V368.29C672.771 367.93 673.111 367.605 673.551 367.315C674.001 367.025 674.571 366.88 675.261 366.88C676.001 366.88 676.646 367.05 677.196 367.39C677.746 367.73 678.171 368.195 678.471 368.785C678.781 369.375 678.936 370.045 678.936 370.795C678.936 371.545 678.781 372.215 678.471 372.805C678.171 373.385 677.741 373.845 677.181 374.185C676.631 374.515 675.986 374.68 675.246 374.68ZM675.111 373.585C675.611 373.585 676.051 373.47 676.431 373.24C676.811 373 677.111 372.67 677.331 372.25C677.551 371.83 677.661 371.34 677.661 370.78C677.661 370.22 677.551 369.73 677.331 369.31C677.111 368.89 676.811 368.565 676.431 368.335C676.051 368.095 675.611 367.975 675.111 367.975C674.611 367.975 674.171 368.095 673.791 368.335C673.411 368.565 673.111 368.89 672.891 369.31C672.671 369.73 672.561 370.22 672.561 370.78C672.561 371.34 672.671 371.83 672.891 372.25C673.111 372.67 673.411 373 673.791 373.24C674.171 373.47 674.611 373.585 675.111 373.585ZM680.69 374.5V367.06H681.83L681.935 368.485C682.165 367.995 682.515 367.605 682.985 367.315C683.455 367.025 684.035 366.88 684.725 366.88V368.2H684.38C683.94 368.2 683.535 368.28 683.165 368.44C682.795 368.59 682.5 368.85 682.28 369.22C682.06 369.59 681.95 370.1 681.95 370.75V374.5H680.69ZM688.614 374.68C687.994 374.68 687.479 374.575 687.069 374.365C686.659 374.155 686.354 373.875 686.154 373.525C685.954 373.175 685.854 372.795 685.854 372.385C685.854 371.625 686.144 371.04 686.724 370.63C687.304 370.22 688.094 370.015 689.094 370.015H691.104V369.925C691.104 369.275 690.934 368.785 690.594 368.455C690.254 368.115 689.799 367.945 689.229 367.945C688.739 367.945 688.314 368.07 687.954 368.32C687.604 368.56 687.384 368.915 687.294 369.385H686.004C686.054 368.845 686.234 368.39 686.544 368.02C686.864 367.65 687.259 367.37 687.729 367.18C688.199 366.98 688.699 366.88 689.229 366.88C690.269 366.88 691.049 367.16 691.569 367.72C692.099 368.27 692.364 369.005 692.364 369.925V374.5H691.239L691.164 373.165C690.954 373.585 690.644 373.945 690.234 374.245C689.834 374.535 689.294 374.68 688.614 374.68ZM688.809 373.615C689.289 373.615 689.699 373.49 690.039 373.24C690.389 372.99 690.654 372.665 690.834 372.265C691.014 371.865 691.104 371.445 691.104 371.005V370.99H689.199C688.459 370.99 687.934 371.12 687.624 371.38C687.324 371.63 687.174 371.945 687.174 372.325C687.174 372.715 687.314 373.03 687.594 373.27C687.884 373.5 688.289 373.615 688.809 373.615ZM701.614 374.68C700.914 374.68 700.284 374.52 699.724 374.2C699.164 373.88 698.719 373.43 698.389 372.85C698.069 372.26 697.909 371.57 697.909 370.78C697.909 369.99 698.074 369.305 698.404 368.725C698.734 368.135 699.179 367.68 699.739 367.36C700.309 367.04 700.944 366.88 701.644 366.88C702.344 366.88 702.974 367.04 703.534 367.36C704.094 367.68 704.534 368.135 704.854 368.725C705.184 369.305 705.349 369.99 705.349 370.78C705.349 371.57 705.184 372.26 704.854 372.85C704.524 373.43 704.074 373.88 703.504 374.2C702.944 374.52 702.314 374.68 701.614 374.68ZM701.614 373.6C702.044 373.6 702.444 373.495 702.814 373.285C703.184 373.075 703.484 372.76 703.714 372.34C703.944 371.92 704.059 371.4 704.059 370.78C704.059 370.16 703.944 369.64 703.714 369.22C703.494 368.8 703.199 368.485 702.829 368.275C702.459 368.065 702.064 367.96 701.644 367.96C701.214 367.96 700.814 368.065 700.444 368.275C700.074 368.485 699.774 368.8 699.544 369.22C699.314 369.64 699.199 370.16 699.199 370.78C699.199 371.4 699.314 371.92 699.544 372.34C699.774 372.76 700.069 373.075 700.429 373.285C700.799 373.495 701.194 373.6 701.614 373.6ZM715.046 374.68C714.436 374.68 713.891 374.555 713.411 374.305C712.941 374.055 712.581 373.705 712.331 373.255L712.211 374.5H711.071V363.7H712.331V368.29C712.571 367.93 712.911 367.605 713.351 367.315C713.801 367.025 714.371 366.88 715.061 366.88C715.801 366.88 716.446 367.05 716.996 367.39C717.546 367.73 717.971 368.195 718.271 368.785C718.581 369.375 718.736 370.045 718.736 370.795C718.736 371.545 718.581 372.215 718.271 372.805C717.971 373.385 717.541 373.845 716.981 374.185C716.431 374.515 715.786 374.68 715.046 374.68ZM714.911 373.585C715.411 373.585 715.851 373.47 716.231 373.24C716.611 373 716.911 372.67 717.131 372.25C717.351 371.83 717.461 371.34 717.461 370.78C717.461 370.22 717.351 369.73 717.131 369.31C716.911 368.89 716.611 368.565 716.231 368.335C715.851 368.095 715.411 367.975 714.911 367.975C714.411 367.975 713.971 368.095 713.591 368.335C713.211 368.565 712.911 368.89 712.691 369.31C712.471 369.73 712.361 370.22 712.361 370.78C712.361 371.34 712.471 371.83 712.691 372.25C712.911 372.67 713.211 373 713.591 373.24C713.971 373.47 714.411 373.585 714.911 373.585ZM721.255 365.41C721.005 365.41 720.795 365.33 720.625 365.17C720.465 365 720.385 364.79 720.385 364.54C720.385 364.3 720.465 364.1 720.625 363.94C720.795 363.78 721.005 363.7 721.255 363.7C721.495 363.7 721.7 363.78 721.87 363.94C722.04 364.1 722.125 364.3 722.125 364.54C722.125 364.79 722.04 365 721.87 365.17C721.7 365.33 721.495 365.41 721.255 365.41ZM720.625 374.5V367.06H721.885V374.5H720.625ZM726.929 374.68C726.039 374.68 725.299 374.455 724.709 374.005C724.119 373.555 723.774 372.945 723.674 372.175H724.964C725.044 372.565 725.249 372.905 725.579 373.195C725.919 373.475 726.374 373.615 726.944 373.615C727.474 373.615 727.864 373.505 728.114 373.285C728.364 373.055 728.489 372.785 728.489 372.475C728.489 372.025 728.324 371.725 727.994 371.575C727.674 371.425 727.219 371.29 726.629 371.17C726.229 371.09 725.829 370.975 725.429 370.825C725.029 370.675 724.694 370.465 724.424 370.195C724.154 369.915 724.019 369.55 724.019 369.1C724.019 368.45 724.259 367.92 724.739 367.51C725.229 367.09 725.889 366.88 726.719 366.88C727.509 366.88 728.154 367.08 728.654 367.48C729.164 367.87 729.459 368.43 729.539 369.16H728.294C728.244 368.78 728.079 368.485 727.799 368.275C727.529 368.055 727.164 367.945 726.704 367.945C726.254 367.945 725.904 368.04 725.654 368.23C725.414 368.42 725.294 368.67 725.294 368.98C725.294 369.28 725.449 369.515 725.759 369.685C726.079 369.855 726.509 370 727.049 370.12C727.509 370.22 727.944 370.345 728.354 370.495C728.774 370.635 729.114 370.85 729.374 371.14C729.644 371.42 729.779 371.83 729.779 372.37C729.789 373.04 729.534 373.595 729.014 374.035C728.504 374.465 727.809 374.68 726.929 374.68ZM734.999 374.68C734.289 374.68 733.649 374.52 733.079 374.2C732.519 373.87 732.074 373.415 731.744 372.835C731.424 372.245 731.264 371.56 731.264 370.78C731.264 370 731.424 369.32 731.744 368.74C732.074 368.15 732.519 367.695 733.079 367.375C733.649 367.045 734.289 366.88 734.999 366.88C735.879 366.88 736.619 367.11 737.219 367.57C737.829 368.03 738.214 368.645 738.374 369.415H737.084C736.984 368.955 736.739 368.6 736.349 368.35C735.959 368.09 735.504 367.96 734.984 367.96C734.564 367.96 734.169 368.065 733.799 368.275C733.429 368.485 733.129 368.8 732.899 369.22C732.669 369.64 732.554 370.16 732.554 370.78C732.554 371.4 732.669 371.92 732.899 372.34C733.129 372.76 733.429 373.08 733.799 373.3C734.169 373.51 734.564 373.615 734.984 373.615C735.504 373.615 735.959 373.49 736.349 373.24C736.739 372.98 736.984 372.615 737.084 372.145H738.374C738.224 372.895 737.844 373.505 737.234 373.975C736.624 374.445 735.879 374.68 734.999 374.68ZM743.524 374.68C742.824 374.68 742.194 374.52 741.634 374.2C741.074 373.88 740.629 373.43 740.299 372.85C739.979 372.26 739.819 371.57 739.819 370.78C739.819 369.99 739.984 369.305 740.314 368.725C740.644 368.135 741.089 367.68 741.649 367.36C742.219 367.04 742.854 366.88 743.554 366.88C744.254 366.88 744.884 367.04 745.444 367.36C746.004 367.68 746.444 368.135 746.764 368.725C747.094 369.305 747.259 369.99 747.259 370.78C747.259 371.57 747.094 372.26 746.764 372.85C746.434 373.43 745.984 373.88 745.414 374.2C744.854 374.52 744.224 374.68 743.524 374.68ZM743.524 373.6C743.954 373.6 744.354 373.495 744.724 373.285C745.094 373.075 745.394 372.76 745.624 372.34C745.854 371.92 745.969 371.4 745.969 370.78C745.969 370.16 745.854 369.64 745.624 369.22C745.404 368.8 745.109 368.485 744.739 368.275C744.369 368.065 743.974 367.96 743.554 367.96C743.124 367.96 742.724 368.065 742.354 368.275C741.984 368.485 741.684 368.8 741.454 369.22C741.224 369.64 741.109 370.16 741.109 370.78C741.109 371.4 741.224 371.92 741.454 372.34C741.684 372.76 741.979 373.075 742.339 373.285C742.709 373.495 743.104 373.6 743.524 373.6ZM749.776 365.41C749.526 365.41 749.316 365.33 749.146 365.17C748.986 365 748.906 364.79 748.906 364.54C748.906 364.3 748.986 364.1 749.146 363.94C749.316 363.78 749.526 363.7 749.776 363.7C750.016 363.7 750.221 363.78 750.391 363.94C750.561 364.1 750.646 364.3 750.646 364.54C750.646 364.79 750.561 365 750.391 365.17C750.221 365.33 750.016 365.41 749.776 365.41ZM749.146 374.5V367.06H750.406V374.5H749.146ZM755.539 374.5C754.859 374.5 754.324 374.335 753.934 374.005C753.544 373.675 753.349 373.08 753.349 372.22V368.125H752.059V367.06H753.349L753.514 365.275H754.609V367.06H756.799V368.125H754.609V372.22C754.609 372.69 754.704 373.01 754.894 373.18C755.084 373.34 755.419 373.42 755.899 373.42H756.679V374.5H755.539ZM761.585 374.68C760.885 374.68 760.255 374.52 759.695 374.2C759.135 373.88 758.69 373.43 758.36 372.85C758.04 372.26 757.88 371.57 757.88 370.78C757.88 369.99 758.045 369.305 758.375 368.725C758.705 368.135 759.15 367.68 759.71 367.36C760.28 367.04 760.915 366.88 761.615 366.88C762.315 366.88 762.945 367.04 763.505 367.36C764.065 367.68 764.505 368.135 764.825 368.725C765.155 369.305 765.32 369.99 765.32 370.78C765.32 371.57 765.155 372.26 764.825 372.85C764.495 373.43 764.045 373.88 763.475 374.2C762.915 374.52 762.285 374.68 761.585 374.68ZM761.585 373.6C762.015 373.6 762.415 373.495 762.785 373.285C763.155 373.075 763.455 372.76 763.685 372.34C763.915 371.92 764.03 371.4 764.03 370.78C764.03 370.16 763.915 369.64 763.685 369.22C763.465 368.8 763.17 368.485 762.8 368.275C762.43 368.065 762.035 367.96 761.615 367.96C761.185 367.96 760.785 368.065 760.415 368.275C760.045 368.485 759.745 368.8 759.515 369.22C759.285 369.64 759.17 370.16 759.17 370.78C759.17 371.4 759.285 371.92 759.515 372.34C759.745 372.76 760.04 373.075 760.4 373.285C760.77 373.495 761.165 373.6 761.585 373.6ZM774.387 374.68C773.677 374.68 773.047 374.52 772.497 374.2C771.947 373.87 771.512 373.415 771.192 372.835C770.882 372.255 770.727 371.57 770.727 370.78C770.727 370 770.882 369.32 771.192 368.74C771.502 368.15 771.932 367.695 772.482 367.375C773.042 367.045 773.687 366.88 774.417 366.88C775.137 366.88 775.757 367.045 776.277 367.375C776.807 367.695 777.212 368.12 777.492 368.65C777.772 369.18 777.912 369.75 777.912 370.36C777.912 370.47 777.907 370.58 777.897 370.69C777.897 370.8 777.897 370.925 777.897 371.065H771.972C772.002 371.635 772.132 372.11 772.362 372.49C772.602 372.86 772.897 373.14 773.247 373.33C773.607 373.52 773.987 373.615 774.387 373.615C774.907 373.615 775.342 373.495 775.692 373.255C776.042 373.015 776.297 372.69 776.457 372.28H777.702C777.502 372.97 777.117 373.545 776.547 374.005C775.987 374.455 775.267 374.68 774.387 374.68ZM774.387 367.945C773.787 367.945 773.252 368.13 772.782 368.5C772.322 368.86 772.057 369.39 771.987 370.09H776.667C776.637 369.42 776.407 368.895 775.977 368.515C775.547 368.135 775.017 367.945 774.387 367.945ZM786.927 374.68C786.187 374.68 785.537 374.51 784.977 374.17C784.427 373.83 783.997 373.365 783.687 372.775C783.387 372.185 783.237 371.515 783.237 370.765C783.237 370.015 783.392 369.35 783.702 368.77C784.012 368.18 784.442 367.72 784.992 367.39C785.542 367.05 786.192 366.88 786.942 366.88C787.552 366.88 788.092 367.005 788.562 367.255C789.032 367.505 789.397 367.855 789.657 368.305V363.7H790.917V374.5H789.777L789.657 373.27C789.417 373.63 789.072 373.955 788.622 374.245C788.172 374.535 787.607 374.68 786.927 374.68ZM787.062 373.585C787.562 373.585 788.002 373.47 788.382 373.24C788.772 373 789.072 372.67 789.282 372.25C789.502 371.83 789.612 371.34 789.612 370.78C789.612 370.22 789.502 369.73 789.282 369.31C789.072 368.89 788.772 368.565 788.382 368.335C788.002 368.095 787.562 367.975 787.062 367.975C786.572 367.975 786.132 368.095 785.742 368.335C785.362 368.565 785.062 368.89 784.842 369.31C784.632 369.73 784.527 370.22 784.527 370.78C784.527 371.34 784.632 371.83 784.842 372.25C785.062 372.67 785.362 373 785.742 373.24C786.132 373.47 786.572 373.585 787.062 373.585ZM796.316 374.68C795.606 374.68 794.976 374.52 794.426 374.2C793.876 373.87 793.441 373.415 793.121 372.835C792.811 372.255 792.656 371.57 792.656 370.78C792.656 370 792.811 369.32 793.121 368.74C793.431 368.15 793.861 367.695 794.411 367.375C794.971 367.045 795.616 366.88 796.346 366.88C797.066 366.88 797.686 367.045 798.206 367.375C798.736 367.695 799.141 368.12 799.421 368.65C799.701 369.18 799.841 369.75 799.841 370.36C799.841 370.47 799.836 370.58 799.826 370.69C799.826 370.8 799.826 370.925 799.826 371.065H793.901C793.931 371.635 794.061 372.11 794.291 372.49C794.531 372.86 794.826 373.14 795.176 373.33C795.536 373.52 795.916 373.615 796.316 373.615C796.836 373.615 797.271 373.495 797.621 373.255C797.971 373.015 798.226 372.69 798.386 372.28H799.631C799.431 372.97 799.046 373.545 798.476 374.005C797.916 374.455 797.196 374.68 796.316 374.68ZM796.316 367.945C795.716 367.945 795.181 368.13 794.711 368.5C794.251 368.86 793.986 369.39 793.916 370.09H798.596C798.566 369.42 798.336 368.895 797.906 368.515C797.476 368.135 796.946 367.945 796.316 367.945ZM804.361 374.68C803.471 374.68 802.731 374.455 802.141 374.005C801.551 373.555 801.206 372.945 801.106 372.175H802.396C802.476 372.565 802.681 372.905 803.011 373.195C803.351 373.475 803.806 373.615 804.376 373.615C804.906 373.615 805.296 373.505 805.546 373.285C805.796 373.055 805.921 372.785 805.921 372.475C805.921 372.025 805.756 371.725 805.426 371.575C805.106 371.425 804.651 371.29 804.061 371.17C803.661 371.09 803.261 370.975 802.861 370.825C802.461 370.675 802.126 370.465 801.856 370.195C801.586 369.915 801.451 369.55 801.451 369.1C801.451 368.45 801.691 367.92 802.171 367.51C802.661 367.09 803.321 366.88 804.151 366.88C804.941 366.88 805.586 367.08 806.086 367.48C806.596 367.87 806.891 368.43 806.971 369.16H805.726C805.676 368.78 805.511 368.485 805.231 368.275C804.961 368.055 804.596 367.945 804.136 367.945C803.686 367.945 803.336 368.04 803.086 368.23C802.846 368.42 802.726 368.67 802.726 368.98C802.726 369.28 802.881 369.515 803.191 369.685C803.511 369.855 803.941 370 804.481 370.12C804.941 370.22 805.376 370.345 805.786 370.495C806.206 370.635 806.546 370.85 806.806 371.14C807.076 371.42 807.211 371.83 807.211 372.37C807.221 373.04 806.966 373.595 806.446 374.035C805.936 374.465 805.241 374.68 804.361 374.68ZM812.431 374.68C811.721 374.68 811.081 374.52 810.511 374.2C809.951 373.87 809.506 373.415 809.176 372.835C808.856 372.245 808.696 371.56 808.696 370.78C808.696 370 808.856 369.32 809.176 368.74C809.506 368.15 809.951 367.695 810.511 367.375C811.081 367.045 811.721 366.88 812.431 366.88C813.311 366.88 814.051 367.11 814.651 367.57C815.261 368.03 815.646 368.645 815.806 369.415H814.516C814.416 368.955 814.171 368.6 813.781 368.35C813.391 368.09 812.936 367.96 812.416 367.96C811.996 367.96 811.601 368.065 811.231 368.275C810.861 368.485 810.561 368.8 810.331 369.22C810.101 369.64 809.986 370.16 809.986 370.78C809.986 371.4 810.101 371.92 810.331 372.34C810.561 372.76 810.861 373.08 811.231 373.3C811.601 373.51 811.996 373.615 812.416 373.615C812.936 373.615 813.391 373.49 813.781 373.24C814.171 372.98 814.416 372.615 814.516 372.145H815.806C815.656 372.895 815.276 373.505 814.666 373.975C814.056 374.445 813.311 374.68 812.431 374.68ZM820.28 374.68C819.4 374.68 818.7 374.415 818.18 373.885C817.66 373.345 817.4 372.52 817.4 371.41V367.06H818.66V371.275C818.66 372.825 819.295 373.6 820.565 373.6C821.215 373.6 821.75 373.37 822.17 372.91C822.6 372.44 822.815 371.775 822.815 370.915V367.06H824.075V374.5H822.935L822.845 373.165C822.615 373.635 822.27 374.005 821.81 374.275C821.36 374.545 820.85 374.68 820.28 374.68ZM830.124 374.68C829.514 374.68 828.969 374.555 828.489 374.305C828.019 374.055 827.659 373.705 827.409 373.255L827.289 374.5H826.149V363.7H827.409V368.29C827.649 367.93 827.989 367.605 828.429 367.315C828.879 367.025 829.449 366.88 830.139 366.88C830.879 366.88 831.524 367.05 832.074 367.39C832.624 367.73 833.049 368.195 833.349 368.785C833.659 369.375 833.814 370.045 833.814 370.795C833.814 371.545 833.659 372.215 833.349 372.805C833.049 373.385 832.619 373.845 832.059 374.185C831.509 374.515 830.864 374.68 830.124 374.68ZM829.989 373.585C830.489 373.585 830.929 373.47 831.309 373.24C831.689 373 831.989 372.67 832.209 372.25C832.429 371.83 832.539 371.34 832.539 370.78C832.539 370.22 832.429 369.73 832.209 369.31C831.989 368.89 831.689 368.565 831.309 368.335C830.929 368.095 830.489 367.975 829.989 367.975C829.489 367.975 829.049 368.095 828.669 368.335C828.289 368.565 827.989 368.89 827.769 369.31C827.549 369.73 827.439 370.22 827.439 370.78C827.439 371.34 827.549 371.83 827.769 372.25C827.989 372.67 828.289 373 828.669 373.24C829.049 373.47 829.489 373.585 829.989 373.585ZM835.568 374.5V367.06H836.708L836.813 368.485C837.043 367.995 837.393 367.605 837.863 367.315C838.333 367.025 838.913 366.88 839.603 366.88V368.2H839.258C838.818 368.2 838.413 368.28 838.043 368.44C837.673 368.59 837.378 368.85 837.158 369.22C836.938 369.59 836.828 370.1 836.828 370.75V374.5H835.568ZM843.492 374.68C842.872 374.68 842.357 374.575 841.947 374.365C841.537 374.155 841.232 373.875 841.032 373.525C840.832 373.175 840.732 372.795 840.732 372.385C840.732 371.625 841.022 371.04 841.602 370.63C842.182 370.22 842.972 370.015 843.972 370.015H845.982V369.925C845.982 369.275 845.812 368.785 845.472 368.455C845.132 368.115 844.677 367.945 844.107 367.945C843.617 367.945 843.192 368.07 842.832 368.32C842.482 368.56 842.262 368.915 842.172 369.385H840.882C840.932 368.845 841.112 368.39 841.422 368.02C841.742 367.65 842.137 367.37 842.607 367.18C843.077 366.98 843.577 366.88 844.107 366.88C845.147 366.88 845.927 367.16 846.447 367.72C846.977 368.27 847.242 369.005 847.242 369.925V374.5H846.117L846.042 373.165C845.832 373.585 845.522 373.945 845.112 374.245C844.712 374.535 844.172 374.68 843.492 374.68ZM843.687 373.615C844.167 373.615 844.577 373.49 844.917 373.24C845.267 372.99 845.532 372.665 845.712 372.265C845.892 371.865 845.982 371.445 845.982 371.005V370.99H844.077C843.337 370.99 842.812 371.12 842.502 371.38C842.202 371.63 842.052 371.945 842.052 372.325C842.052 372.715 842.192 373.03 842.472 373.27C842.762 373.5 843.167 373.615 843.687 373.615ZM849.403 371.59L849.253 364H850.618L850.468 371.59H849.403ZM849.973 374.575C849.723 374.575 849.513 374.495 849.343 374.335C849.183 374.165 849.103 373.96 849.103 373.72C849.103 373.48 849.183 373.28 849.343 373.12C849.513 372.95 849.723 372.865 849.973 372.865C850.213 372.865 850.413 372.95 850.573 373.12C850.743 373.28 850.828 373.48 850.828 373.72C850.828 373.96 850.743 374.165 850.573 374.335C850.413 374.495 850.213 374.575 849.973 374.575Z" fill="#34355B"/>
<path d="M654.091 310.788C652.779 310.788 651.555 310.572 650.419 310.14C649.299 309.708 648.323 309.1 647.491 308.316C646.675 307.532 646.035 306.612 645.571 305.556C645.123 304.5 644.899 303.348 644.899 302.1C644.899 300.852 645.123 299.7 645.571 298.644C646.035 297.588 646.683 296.668 647.515 295.884C648.347 295.1 649.323 294.492 650.443 294.06C651.563 293.628 652.779 293.412 654.091 293.412C655.419 293.412 656.635 293.628 657.739 294.06C658.859 294.492 659.827 295.1 660.643 295.884C661.475 296.652 662.123 297.564 662.587 298.62C663.051 299.676 663.283 300.836 663.283 302.1C663.283 303.348 663.051 304.508 662.587 305.58C662.123 306.636 661.475 307.556 660.643 308.34C659.827 309.108 658.859 309.708 657.739 310.14C656.635 310.572 655.419 310.788 654.091 310.788ZM659.587 314.364C658.931 314.364 658.307 314.292 657.715 314.148C657.139 314.004 656.563 313.772 655.987 313.452C655.427 313.132 654.835 312.7 654.211 312.156C653.603 311.612 652.939 310.94 652.219 310.14L656.299 309.108C656.731 309.7 657.131 310.172 657.499 310.524C657.867 310.876 658.219 311.124 658.555 311.268C658.907 311.412 659.275 311.484 659.659 311.484C660.683 311.484 661.595 311.068 662.395 310.236L664.123 312.3C662.987 313.676 661.475 314.364 659.587 314.364ZM654.091 307.476C654.843 307.476 655.531 307.348 656.155 307.092C656.795 306.836 657.355 306.468 657.835 305.988C658.315 305.508 658.683 304.94 658.939 304.284C659.211 303.612 659.347 302.884 659.347 302.1C659.347 301.3 659.211 300.572 658.939 299.916C658.683 299.26 658.315 298.692 657.835 298.212C657.355 297.732 656.795 297.364 656.155 297.108C655.531 296.852 654.843 296.724 654.091 296.724C653.339 296.724 652.643 296.852 652.003 297.108C651.363 297.364 650.803 297.732 650.323 298.212C649.859 298.692 649.491 299.26 649.219 299.916C648.963 300.572 648.835 301.3 648.835 302.1C648.835 302.884 648.963 303.612 649.219 304.284C649.491 304.94 649.859 305.508 650.323 305.988C650.803 306.468 651.363 306.836 652.003 307.092C652.643 307.348 653.339 307.476 654.091 307.476ZM671.389 310.692C670.317 310.692 669.357 310.484 668.509 310.068C667.677 309.652 667.029 309.02 666.565 308.172C666.101 307.308 665.869 306.212 665.869 304.884V297.588H669.613V304.332C669.613 305.404 669.837 306.196 670.285 306.708C670.749 307.204 671.397 307.452 672.229 307.452C672.805 307.452 673.317 307.332 673.765 307.092C674.213 306.836 674.565 306.452 674.821 305.94C675.077 305.412 675.205 304.756 675.205 303.972V297.588H678.949V310.5H675.397V306.948L676.045 307.98C675.613 308.876 674.973 309.556 674.125 310.02C673.293 310.468 672.381 310.692 671.389 310.692ZM690.338 310.5V307.98L690.098 307.428V302.916C690.098 302.116 689.85 301.492 689.354 301.044C688.874 300.596 688.13 300.372 687.122 300.372C686.434 300.372 685.754 300.484 685.082 300.708C684.426 300.916 683.866 301.204 683.402 301.572L682.058 298.956C682.762 298.46 683.61 298.076 684.602 297.804C685.594 297.532 686.602 297.396 687.626 297.396C689.594 297.396 691.122 297.86 692.21 298.788C693.298 299.716 693.842 301.164 693.842 303.132V310.5H690.338ZM686.402 310.692C685.394 310.692 684.53 310.524 683.81 310.188C683.09 309.836 682.538 309.364 682.154 308.772C681.77 308.18 681.578 307.516 681.578 306.78C681.578 306.012 681.762 305.34 682.13 304.764C682.514 304.188 683.114 303.74 683.93 303.42C684.746 303.084 685.81 302.916 687.122 302.916H690.554V305.1H687.53C686.65 305.1 686.042 305.244 685.706 305.532C685.386 305.82 685.226 306.18 685.226 306.612C685.226 307.092 685.41 307.476 685.778 307.764C686.162 308.036 686.682 308.172 687.338 308.172C687.962 308.172 688.522 308.028 689.018 307.74C689.514 307.436 689.874 306.996 690.098 306.42L690.674 308.148C690.402 308.98 689.906 309.612 689.186 310.044C688.466 310.476 687.538 310.692 686.402 310.692ZM697.23 310.5V292.692H700.974V310.5H697.23ZM717.654 310.692C716.182 310.692 714.886 310.404 713.766 309.828C712.662 309.252 711.806 308.468 711.198 307.476C710.59 306.468 710.286 305.324 710.286 304.044C710.286 302.748 710.582 301.604 711.174 300.612C711.782 299.604 712.606 298.82 713.646 298.26C714.686 297.684 715.862 297.396 717.174 297.396C718.438 297.396 719.574 297.668 720.582 298.212C721.606 298.74 722.414 299.508 723.006 300.516C723.598 301.508 723.894 302.7 723.894 304.092C723.894 304.236 723.886 304.404 723.87 304.596C723.854 304.772 723.838 304.94 723.822 305.1H713.334V302.916H721.854L720.414 303.564C720.414 302.892 720.278 302.308 720.006 301.812C719.734 301.316 719.358 300.932 718.878 300.66C718.398 300.372 717.838 300.228 717.198 300.228C716.558 300.228 715.99 300.372 715.494 300.66C715.014 300.932 714.638 301.324 714.366 301.836C714.094 302.332 713.958 302.924 713.958 303.612V304.188C713.958 304.892 714.11 305.516 714.414 306.06C714.734 306.588 715.174 306.996 715.734 307.284C716.31 307.556 716.982 307.692 717.75 307.692C718.438 307.692 719.038 307.588 719.55 307.38C720.078 307.172 720.558 306.86 720.99 306.444L722.982 308.604C722.39 309.276 721.646 309.796 720.75 310.164C719.854 310.516 718.822 310.692 717.654 310.692ZM714.918 295.932L718.158 292.476H722.19L717.846 295.932H714.918ZM741.103 310.5V307.98L740.863 307.428V302.916C740.863 302.116 740.615 301.492 740.119 301.044C739.639 300.596 738.895 300.372 737.887 300.372C737.199 300.372 736.519 300.484 735.847 300.708C735.191 300.916 734.631 301.204 734.167 301.572L732.823 298.956C733.527 298.46 734.375 298.076 735.367 297.804C736.359 297.532 737.367 297.396 738.391 297.396C740.359 297.396 741.887 297.86 742.975 298.788C744.063 299.716 744.607 301.164 744.607 303.132V310.5H741.103ZM737.167 310.692C736.159 310.692 735.295 310.524 734.575 310.188C733.855 309.836 733.303 309.364 732.919 308.772C732.535 308.18 732.343 307.516 732.343 306.78C732.343 306.012 732.527 305.34 732.895 304.764C733.279 304.188 733.879 303.74 734.695 303.42C735.511 303.084 736.575 302.916 737.887 302.916H741.319V305.1H738.295C737.415 305.1 736.807 305.244 736.471 305.532C736.151 305.82 735.991 306.18 735.991 306.612C735.991 307.092 736.175 307.476 736.543 307.764C736.927 308.036 737.447 308.172 738.103 308.172C738.727 308.172 739.287 308.028 739.783 307.74C740.279 307.436 740.639 306.996 740.863 306.42L741.439 308.148C741.167 308.98 740.671 309.612 739.951 310.044C739.231 310.476 738.303 310.692 737.167 310.692ZM759.137 310.692C758.033 310.692 756.969 310.564 755.945 310.308C754.937 310.036 754.137 309.7 753.545 309.3L754.793 306.612C755.385 306.98 756.081 307.284 756.881 307.524C757.697 307.748 758.497 307.86 759.281 307.86C760.145 307.86 760.753 307.756 761.105 307.548C761.473 307.34 761.657 307.052 761.657 306.684C761.657 306.38 761.513 306.156 761.225 306.012C760.953 305.852 760.585 305.732 760.121 305.652C759.657 305.572 759.145 305.492 758.585 305.412C758.041 305.332 757.489 305.228 756.929 305.1C756.369 304.956 755.857 304.748 755.393 304.476C754.929 304.204 754.553 303.836 754.265 303.372C753.993 302.908 753.857 302.308 753.857 301.572C753.857 300.756 754.089 300.036 754.553 299.412C755.033 298.788 755.721 298.3 756.617 297.948C757.513 297.58 758.585 297.396 759.833 297.396C760.713 297.396 761.609 297.492 762.521 297.684C763.433 297.876 764.193 298.156 764.801 298.524L763.553 301.188C762.929 300.82 762.297 300.572 761.657 300.444C761.033 300.3 760.425 300.228 759.833 300.228C759.001 300.228 758.393 300.34 758.009 300.564C757.625 300.788 757.433 301.076 757.433 301.428C757.433 301.748 757.569 301.988 757.841 302.148C758.129 302.308 758.505 302.436 758.969 302.532C759.433 302.628 759.937 302.716 760.481 302.796C761.041 302.86 761.601 302.964 762.161 303.108C762.721 303.252 763.225 303.46 763.673 303.732C764.137 303.988 764.513 304.348 764.801 304.812C765.089 305.26 765.233 305.852 765.233 306.588C765.233 307.388 764.993 308.1 764.513 308.724C764.033 309.332 763.337 309.812 762.425 310.164C761.529 310.516 760.433 310.692 759.137 310.692ZM772.991 310.692C771.919 310.692 770.959 310.484 770.111 310.068C769.279 309.652 768.631 309.02 768.167 308.172C767.703 307.308 767.471 306.212 767.471 304.884V297.588H771.215V304.332C771.215 305.404 771.439 306.196 771.887 306.708C772.351 307.204 772.999 307.452 773.831 307.452C774.407 307.452 774.919 307.332 775.367 307.092C775.815 306.836 776.167 306.452 776.423 305.94C776.679 305.412 776.807 304.756 776.807 303.972V297.588H780.551V310.5H776.999V306.948L777.647 307.98C777.215 308.876 776.575 309.556 775.727 310.02C774.895 310.468 773.983 310.692 772.991 310.692ZM791.939 310.5V307.98L791.699 307.428V302.916C791.699 302.116 791.451 301.492 790.955 301.044C790.475 300.596 789.731 300.372 788.723 300.372C788.035 300.372 787.355 300.484 786.683 300.708C786.027 300.916 785.467 301.204 785.003 301.572L783.659 298.956C784.363 298.46 785.211 298.076 786.203 297.804C787.195 297.532 788.203 297.396 789.227 297.396C791.195 297.396 792.723 297.86 793.811 298.788C794.899 299.716 795.443 301.164 795.443 303.132V310.5H791.939ZM788.003 310.692C786.995 310.692 786.131 310.524 785.411 310.188C784.691 309.836 784.139 309.364 783.755 308.772C783.371 308.18 783.179 307.516 783.179 306.78C783.179 306.012 783.363 305.34 783.731 304.764C784.115 304.188 784.715 303.74 785.531 303.42C786.347 303.084 787.411 302.916 788.723 302.916H792.155V305.1H789.131C788.251 305.1 787.643 305.244 787.307 305.532C786.987 305.82 786.827 306.18 786.827 306.612C786.827 307.092 787.011 307.476 787.379 307.764C787.763 308.036 788.283 308.172 788.939 308.172C789.563 308.172 790.123 308.028 790.619 307.74C791.115 307.436 791.475 306.996 791.699 306.42L792.275 308.148C792.003 308.98 791.507 309.612 790.787 310.044C790.067 310.476 789.139 310.692 788.003 310.692ZM809.973 310.692C808.869 310.692 807.805 310.564 806.781 310.308C805.773 310.036 804.973 309.7 804.381 309.3L805.629 306.612C806.221 306.98 806.917 307.284 807.717 307.524C808.533 307.748 809.333 307.86 810.117 307.86C810.981 307.86 811.589 307.756 811.941 307.548C812.309 307.34 812.493 307.052 812.493 306.684C812.493 306.38 812.349 306.156 812.061 306.012C811.789 305.852 811.421 305.732 810.957 305.652C810.493 305.572 809.981 305.492 809.421 305.412C808.877 305.332 808.325 305.228 807.765 305.1C807.205 304.956 806.693 304.748 806.229 304.476C805.765 304.204 805.389 303.836 805.101 303.372C804.829 302.908 804.693 302.308 804.693 301.572C804.693 300.756 804.925 300.036 805.389 299.412C805.869 298.788 806.557 298.3 807.453 297.948C808.349 297.58 809.421 297.396 810.669 297.396C811.549 297.396 812.445 297.492 813.357 297.684C814.269 297.876 815.029 298.156 815.637 298.524L814.389 301.188C813.765 300.82 813.133 300.572 812.493 300.444C811.869 300.3 811.261 300.228 810.669 300.228C809.837 300.228 809.229 300.34 808.845 300.564C808.461 300.788 808.269 301.076 808.269 301.428C808.269 301.748 808.405 301.988 808.677 302.148C808.965 302.308 809.341 302.436 809.805 302.532C810.269 302.628 810.773 302.716 811.317 302.796C811.877 302.86 812.437 302.964 812.997 303.108C813.557 303.252 814.061 303.46 814.509 303.732C814.973 303.988 815.349 304.348 815.637 304.812C815.925 305.26 816.069 305.852 816.069 306.588C816.069 307.388 815.829 308.1 815.349 308.724C814.869 309.332 814.173 309.812 813.261 310.164C812.365 310.516 811.269 310.692 809.973 310.692ZM824.523 310.692C823.147 310.692 821.923 310.404 820.851 309.828C819.795 309.252 818.955 308.468 818.331 307.476C817.723 306.468 817.419 305.324 817.419 304.044C817.419 302.748 817.723 301.604 818.331 300.612C818.955 299.604 819.795 298.82 820.851 298.26C821.923 297.684 823.147 297.396 824.523 297.396C825.883 297.396 827.099 297.684 828.171 298.26C829.243 298.82 830.083 299.596 830.691 300.588C831.299 301.58 831.603 302.732 831.603 304.044C831.603 305.324 831.299 306.468 830.691 307.476C830.083 308.468 829.243 309.252 828.171 309.828C827.099 310.404 825.883 310.692 824.523 310.692ZM824.523 307.62C825.147 307.62 825.707 307.476 826.203 307.188C826.699 306.9 827.091 306.492 827.379 305.964C827.667 305.42 827.811 304.78 827.811 304.044C827.811 303.292 827.667 302.652 827.379 302.124C827.091 301.596 826.699 301.188 826.203 300.9C825.707 300.612 825.147 300.468 824.523 300.468C823.899 300.468 823.339 300.612 822.843 300.9C822.347 301.188 821.947 301.596 821.643 302.124C821.355 302.652 821.211 303.292 821.211 304.044C821.211 304.78 821.355 305.42 821.643 305.964C821.947 306.492 822.347 306.9 822.843 307.188C823.339 307.476 823.899 307.62 824.523 307.62ZM834.105 310.5V297.588H837.681V301.236L837.177 300.18C837.561 299.268 838.177 298.58 839.025 298.116C839.873 297.636 840.905 297.396 842.121 297.396V300.852C841.961 300.836 841.817 300.828 841.689 300.828C841.561 300.812 841.425 300.804 841.281 300.804C840.257 300.804 839.425 301.1 838.785 301.692C838.161 302.268 837.849 303.172 837.849 304.404V310.5H834.105ZM850.073 310.692C848.553 310.692 847.369 310.308 846.521 309.54C845.673 308.756 845.249 307.596 845.249 306.06V294.732H848.993V306.012C848.993 306.556 849.137 306.98 849.425 307.284C849.713 307.572 850.105 307.716 850.601 307.716C851.193 307.716 851.697 307.556 852.113 307.236L853.121 309.876C852.737 310.148 852.273 310.356 851.729 310.5C851.201 310.628 850.649 310.692 850.073 310.692ZM843.257 300.756V297.876H852.209V300.756H843.257ZM861.232 310.692C859.76 310.692 858.464 310.404 857.344 309.828C856.24 309.252 855.384 308.468 854.776 307.476C854.168 306.468 853.864 305.324 853.864 304.044C853.864 302.748 854.16 301.604 854.752 300.612C855.36 299.604 856.184 298.82 857.224 298.26C858.264 297.684 859.44 297.396 860.752 297.396C862.016 297.396 863.152 297.668 864.16 298.212C865.184 298.74 865.992 299.508 866.584 300.516C867.176 301.508 867.472 302.7 867.472 304.092C867.472 304.236 867.464 304.404 867.448 304.596C867.432 304.772 867.416 304.94 867.4 305.1H856.912V302.916H865.432L863.992 303.564C863.992 302.892 863.856 302.308 863.584 301.812C863.312 301.316 862.936 300.932 862.456 300.66C861.976 300.372 861.416 300.228 860.776 300.228C860.136 300.228 859.568 300.372 859.072 300.66C858.592 300.932 858.216 301.324 857.944 301.836C857.672 302.332 857.536 302.924 857.536 303.612V304.188C857.536 304.892 857.688 305.516 857.992 306.06C858.312 306.588 858.752 306.996 859.312 307.284C859.888 307.556 860.56 307.692 861.328 307.692C862.016 307.692 862.616 307.588 863.128 307.38C863.656 307.172 864.136 306.86 864.568 306.444L866.56 308.604C865.968 309.276 865.224 309.796 864.328 310.164C863.432 310.516 862.4 310.692 861.232 310.692ZM710.087 339.692C708.871 339.692 707.775 339.42 706.799 338.876C705.823 338.316 705.047 337.54 704.471 336.548C703.911 335.556 703.631 334.388 703.631 333.044C703.631 331.684 703.911 330.508 704.471 329.516C705.047 328.524 705.823 327.756 706.799 327.212C707.775 326.668 708.871 326.396 710.087 326.396C711.175 326.396 712.127 326.636 712.943 327.116C713.759 327.596 714.391 328.324 714.839 329.3C715.287 330.276 715.511 331.524 715.511 333.044C715.511 334.548 715.295 335.796 714.863 336.788C714.431 337.764 713.807 338.492 712.991 338.972C712.191 339.452 711.223 339.692 710.087 339.692ZM710.735 336.62C711.343 336.62 711.895 336.476 712.391 336.188C712.887 335.9 713.279 335.492 713.567 334.964C713.871 334.42 714.023 333.78 714.023 333.044C714.023 332.292 713.871 331.652 713.567 331.124C713.279 330.596 712.887 330.188 712.391 329.9C711.895 329.612 711.343 329.468 710.735 329.468C710.111 329.468 709.551 329.612 709.055 329.9C708.559 330.188 708.159 330.596 707.855 331.124C707.567 331.652 707.423 332.292 707.423 333.044C707.423 333.78 707.567 334.42 707.855 334.964C708.159 335.492 708.559 335.9 709.055 336.188C709.551 336.476 710.111 336.62 710.735 336.62ZM714.119 339.5V336.86L714.191 333.02L713.951 329.204V321.692H717.695V339.5H714.119ZM727.568 339.692C726.096 339.692 724.8 339.404 723.68 338.828C722.576 338.252 721.72 337.468 721.112 336.476C720.504 335.468 720.2 334.324 720.2 333.044C720.2 331.748 720.496 330.604 721.088 329.612C721.696 328.604 722.52 327.82 723.56 327.26C724.6 326.684 725.776 326.396 727.088 326.396C728.352 326.396 729.488 326.668 730.496 327.212C731.52 327.74 732.328 328.508 732.92 329.516C733.512 330.508 733.808 331.7 733.808 333.092C733.808 333.236 733.8 333.404 733.784 333.596C733.768 333.772 733.752 333.94 733.736 334.1H723.248V331.916H731.768L730.328 332.564C730.328 331.892 730.192 331.308 729.92 330.812C729.648 330.316 729.272 329.932 728.792 329.66C728.312 329.372 727.752 329.228 727.112 329.228C726.472 329.228 725.904 329.372 725.408 329.66C724.928 329.932 724.552 330.324 724.28 330.836C724.008 331.332 723.872 331.924 723.872 332.612V333.188C723.872 333.892 724.024 334.516 724.328 335.06C724.648 335.588 725.088 335.996 725.648 336.284C726.224 336.556 726.896 336.692 727.664 336.692C728.352 336.692 728.952 336.588 729.464 336.38C729.992 336.172 730.472 335.86 730.904 335.444L732.896 337.604C732.304 338.276 731.56 338.796 730.664 339.164C729.768 339.516 728.736 339.692 727.568 339.692ZM750.946 326.396C751.97 326.396 752.882 326.604 753.682 327.02C754.498 327.42 755.138 328.044 755.602 328.892C756.066 329.724 756.298 330.796 756.298 332.108V339.5H752.554V332.684C752.554 331.644 752.322 330.876 751.858 330.38C751.41 329.884 750.77 329.636 749.938 329.636C749.346 329.636 748.81 329.764 748.33 330.02C747.866 330.26 747.498 330.636 747.226 331.148C746.97 331.66 746.842 332.316 746.842 333.116V339.5H743.098V321.692H746.842V330.164L746.002 329.084C746.466 328.22 747.13 327.556 747.994 327.092C748.858 326.628 749.842 326.396 750.946 326.396ZM765.929 339.692C764.553 339.692 763.329 339.404 762.257 338.828C761.201 338.252 760.361 337.468 759.737 336.476C759.129 335.468 758.825 334.324 758.825 333.044C758.825 331.748 759.129 330.604 759.737 329.612C760.361 328.604 761.201 327.82 762.257 327.26C763.329 326.684 764.553 326.396 765.929 326.396C767.289 326.396 768.505 326.684 769.577 327.26C770.649 327.82 771.489 328.596 772.097 329.588C772.705 330.58 773.009 331.732 773.009 333.044C773.009 334.324 772.705 335.468 772.097 336.476C771.489 337.468 770.649 338.252 769.577 338.828C768.505 339.404 767.289 339.692 765.929 339.692ZM765.929 336.62C766.553 336.62 767.113 336.476 767.609 336.188C768.105 335.9 768.497 335.492 768.785 334.964C769.073 334.42 769.217 333.78 769.217 333.044C769.217 332.292 769.073 331.652 768.785 331.124C768.497 330.596 768.105 330.188 767.609 329.9C767.113 329.612 766.553 329.468 765.929 329.468C765.305 329.468 764.745 329.612 764.249 329.9C763.753 330.188 763.353 330.596 763.049 331.124C762.761 331.652 762.617 332.292 762.617 333.044C762.617 333.78 762.761 334.42 763.049 334.964C763.353 335.492 763.753 335.9 764.249 336.188C764.745 336.476 765.305 336.62 765.929 336.62ZM774.552 344.348C773.976 344.348 773.424 344.284 772.896 344.156C772.368 344.044 771.92 343.868 771.552 343.628L772.56 340.916C772.992 341.22 773.52 341.372 774.144 341.372C774.608 341.372 774.976 341.212 775.248 340.892C775.536 340.588 775.68 340.124 775.68 339.5V326.588H779.424V339.476C779.424 340.964 779 342.148 778.152 343.028C777.304 343.908 776.104 344.348 774.552 344.348ZM777.552 324.788C776.864 324.788 776.304 324.588 775.872 324.188C775.44 323.788 775.224 323.292 775.224 322.7C775.224 322.108 775.44 321.612 775.872 321.212C776.304 320.812 776.864 320.612 777.552 320.612C778.24 320.612 778.8 320.804 779.232 321.188C779.664 321.556 779.88 322.036 779.88 322.628C779.88 323.252 779.664 323.772 779.232 324.188C778.816 324.588 778.256 324.788 777.552 324.788ZM789.279 339.692C787.807 339.692 786.511 339.404 785.391 338.828C784.287 338.252 783.431 337.468 782.823 336.476C782.215 335.468 781.911 334.324 781.911 333.044C781.911 331.748 782.207 330.604 782.799 329.612C783.407 328.604 784.231 327.82 785.271 327.26C786.311 326.684 787.487 326.396 788.799 326.396C790.063 326.396 791.199 326.668 792.207 327.212C793.231 327.74 794.039 328.508 794.631 329.516C795.223 330.508 795.519 331.7 795.519 333.092C795.519 333.236 795.511 333.404 795.495 333.596C795.479 333.772 795.463 333.94 795.447 334.1H784.959V331.916H793.479L792.039 332.564C792.039 331.892 791.903 331.308 791.631 330.812C791.359 330.316 790.983 329.932 790.503 329.66C790.023 329.372 789.463 329.228 788.823 329.228C788.183 329.228 787.615 329.372 787.119 329.66C786.639 329.932 786.263 330.324 785.991 330.836C785.719 331.332 785.583 331.924 785.583 332.612V333.188C785.583 333.892 785.735 334.516 786.039 335.06C786.359 335.588 786.799 335.996 787.359 336.284C787.935 336.556 788.607 336.692 789.375 336.692C790.063 336.692 790.663 336.588 791.175 336.38C791.703 336.172 792.183 335.86 792.615 335.444L794.607 337.604C794.015 338.276 793.271 338.796 792.375 339.164C791.479 339.516 790.447 339.692 789.279 339.692ZM800.46 333.668C800.46 333.108 800.548 332.612 800.724 332.18C800.916 331.748 801.148 331.364 801.42 331.028C801.708 330.692 802.012 330.38 802.332 330.092C802.652 329.804 802.948 329.532 803.22 329.276C803.508 329.004 803.74 328.724 803.916 328.436C804.108 328.148 804.204 327.828 804.204 327.476C804.204 326.9 803.964 326.436 803.484 326.084C803.02 325.732 802.396 325.556 801.612 325.556C800.86 325.556 800.188 325.716 799.596 326.036C799.004 326.34 798.516 326.772 798.132 327.332L795.228 325.628C795.868 324.652 796.756 323.876 797.892 323.3C799.028 322.708 800.404 322.412 802.02 322.412C803.22 322.412 804.276 322.588 805.188 322.94C806.1 323.276 806.812 323.772 807.324 324.428C807.852 325.084 808.116 325.892 808.116 326.852C808.116 327.476 808.02 328.028 807.828 328.508C807.636 328.988 807.388 329.404 807.084 329.756C806.78 330.108 806.452 330.436 806.1 330.74C805.764 331.044 805.444 331.34 805.14 331.628C804.836 331.916 804.58 332.22 804.372 332.54C804.18 332.86 804.084 333.236 804.084 333.668H800.46ZM802.284 339.692C801.612 339.692 801.06 339.476 800.628 339.044C800.196 338.612 799.98 338.1 799.98 337.508C799.98 336.9 800.196 336.396 800.628 335.996C801.06 335.58 801.612 335.372 802.284 335.372C802.972 335.372 803.524 335.58 803.94 335.996C804.372 336.396 804.588 336.9 804.588 337.508C804.588 338.1 804.372 338.612 803.94 339.044C803.524 339.476 802.972 339.692 802.284 339.692Z" fill="#34355B"/>
</g>
<defs>
<filter id="filter0_d_1_2" x="492" y="209.5" width="528" height="524" filterUnits="userSpaceOnUse" color-interpolation-filters="sRGB">
<feFlood flood-opacity="0" result="BackgroundImageFix"/>
<feColorMatrix in="SourceAlpha" type="matrix" values="0 0 0 0 0 0 0 0 0 0 0 0 0 0 0 0 0 0 127 0" result="hardAlpha"/>
<feOffset dy="20"/>
<feGaussianBlur stdDeviation="25"/>
<feComposite in2="hardAlpha" operator="out"/>
<feColorMatrix type="matrix" values="0 0 0 0 0 0 0 0 0 0 0 0 0 0 0 0 0 0 0.8 0"/>
<feBlend mode="normal" in2="BackgroundImageFix" result="effect1_dropShadow_1_2"/>
<feBlend mode="normal" in="SourceGraphic" in2="effect1_dropShadow_1_2" result="shape"/>
</filter>
<linearGradient id="paint0_linear_1_2" x1="0" y1="982" x2="897.137" y2="-399.335" gradientUnits="userSpaceOnUse">
<stop stop-color="#190361"/>
<stop offset="1" stop-color="#BB00FF"/>
</linearGradient>
</defs>
</svg>
